<mxfile host="Electron" modified="2023-08-02T14:07:14.189Z" agent="Mozilla/5.0 (Windows NT 10.0; Win64; x64) AppleWebKit/537.36 (KHTML, like Gecko) draw.io/21.6.5 Chrome/114.0.5735.243 Electron/25.3.1 Safari/537.36" etag="VktN1tAVlQdLc3AoW8OL" version="21.6.5" type="device">
  <diagram name="Page-1" id="dlsnoHJaFopMbUAi9kex">
    <mxGraphModel dx="864" dy="495" grid="1" gridSize="10" guides="1" tooltips="1" connect="1" arrows="1" fold="1" page="1" pageScale="1" pageWidth="1169" pageHeight="827" math="0" shadow="0">
      <root>
        <mxCell id="0" />
        <mxCell id="1" parent="0" />
        <mxCell id="5FV6XzGGmzpMhqnbmBzK-1" value="&lt;u style=&quot;font-weight: normal;&quot;&gt;myAddress : Address&lt;/u&gt;" style="swimlane;fontStyle=1;align=center;verticalAlign=middle;childLayout=stackLayout;horizontal=1;startSize=29;horizontalStack=0;resizeParent=1;resizeParentMax=0;resizeLast=0;collapsible=0;marginBottom=0;html=1;whiteSpace=wrap;" vertex="1" parent="1">
          <mxGeometry width="200" height="80" as="geometry" />
        </mxCell>
        <mxCell id="5FV6XzGGmzpMhqnbmBzK-3" value="streetName = &quot;S. Crown Street&quot;&lt;br&gt;streetNumber: Integer = 381" style="text;html=1;strokeColor=none;fillColor=none;align=left;verticalAlign=middle;spacingLeft=4;spacingRight=4;overflow=hidden;rotatable=0;points=[[0,0.5],[1,0.5]];portConstraint=eastwest;whiteSpace=wrap;" vertex="1" parent="5FV6XzGGmzpMhqnbmBzK-1">
          <mxGeometry y="29" width="200" height="51" as="geometry" />
        </mxCell>
      </root>
    </mxGraphModel>
  </diagram>
</mxfile>
